<?xml version="1.0" encoding="utf-8"?>
<!-- Generator: Adobe Illustrator 16.0.0, SVG Export Plug-In . SVG Version: 6.00 Build 0)  -->
<!DOCTYPE svg PUBLIC "-//W3C//DTD SVG 1.1//EN" "http://www.w3.org/Graphics/SVG/1.1/DTD/svg11.dtd">
<svg version="1.1" id="svg2" xmlns:svg="http://www.w3.org/2000/svg"
	 xmlns="http://www.w3.org/2000/svg" xmlns:xlink="http://www.w3.org/1999/xlink" x="0px" y="0px" width="645px" height="585px"
	 viewBox="0 0 645 585" enable-background="new 0 0 645 585" xml:space="preserve">
<g id="layer1">
	<g id="XMLID_1_">
		<g>
			<path fill="#FFFFFF" d="M626.31,101.11c19.641,39.08,21.801,122.51,4.381,169.51c-22.71,61.31-65.381,108.05-164,179.68
				C402.01,497.27,328.8,568.35,323.71,578.33c-5.92,11.59-0.29,1.81-26.41-27.46c-13.78-15.44-48.17-45.53-76.44-66.88
				c-83.74-63.24-95.14-72.391-129.14-103.7C29.03,322.57,2.41,264.58,2.5,185.95c0.05-38.38,2.67-53.17,13.41-75.8
				C34.15,71.77,61.02,43.24,95.36,25.8c24.33-12.36,36.32-17.85,76.94-18.07c42.5-0.24,51.44,4.72,76.44,18.45
				c30.42,16.72,61.74,52.44,68.21,77.81l4,15.67l9.859-21.58C386.53-23.89,564.41-22.07,626.31,101.11z"/>
		</g>
		<g>
		</g>
	</g>
	<g id="g2221" transform="translate(129.28571,-64.285714)">
	</g>
</g>
</svg>
